<svg width="108" height="108" viewBox="0 0 108 108" fill="none" xmlns="http://www.w3.org/2000/svg">
<g clip-path="url(#clip0)">
<path d="M107.053 68.0971C107.035 67.8888 106.989 67.6838 106.917 67.4875L106.858 67.3272C106.499 65.9902 106.017 64.6894 105.419 63.4408L93.5402 31.3569C92.4816 28.1333 90.4217 25.3315 87.6603 23.3597L87.2371 20.3576C87.2171 20.2163 87.1844 20.0771 87.1393 19.9417C85.5463 15.2022 81.0951 12.0169 76.0951 12.0386C69.8301 12.0386 64.6164 17.1772 64.473 23.4935V23.5969L64.5731 28.2417C63.4917 30.0846 62.7961 32.1275 62.5278 34.2474H45.477C45.2085 32.1301 44.5138 30.089 43.4345 28.2478L43.5339 23.6842C43.5339 23.6494 43.5339 23.6287 43.5339 23.5939C43.3903 17.2776 38.1764 12.146 31.9116 12.146C26.9109 12.1258 22.4599 15.3122 20.8674 20.0527C20.8236 20.1843 20.7917 20.3197 20.7717 20.457L20.3462 23.3595C17.5855 25.3315 15.526 28.1326 14.4674 31.3557L2.58885 63.4406C1.99077 64.6892 1.50906 65.9902 1.14984 67.3272L1.0906 67.4873C1.01842 67.684 0.973049 67.8897 0.955417 68.0985C-1.87793 80.3267 5.73792 92.5362 17.9661 95.3696C30.1942 98.2029 42.4038 90.5869 45.2372 78.3589C45.6272 76.6759 45.824 74.9538 45.8237 73.2261C45.8237 72.9793 45.8183 72.7324 45.8106 72.4884C45.8197 72.3979 45.8242 72.3067 45.8237 72.2157L45.7737 64.3401H62.2363L62.1839 72.6859C62.1839 72.7254 62.1874 72.7712 62.1891 72.8103C62.1867 72.9464 62.1839 73.0858 62.1839 73.2224C62.1879 85.7738 72.366 95.9453 84.9174 95.9413C97.4688 95.9373 107.64 85.7592 107.636 73.2078C107.636 71.4876 107.44 69.7731 107.053 68.0971ZM31.9114 16.8549C35.5022 16.8549 38.513 19.7064 38.8102 23.2932C34.9612 20.5962 30.1216 19.7268 25.5744 20.9152C26.701 18.4305 29.1831 16.8401 31.9114 16.8549ZM18.8919 32.9485C18.9025 32.9198 18.9126 32.8909 18.922 32.862C20.8638 26.9418 27.2375 23.7168 33.1576 25.6587C35.5584 26.4463 37.6253 28.0169 39.0272 30.1189C39.0714 30.1967 39.1203 30.2719 39.1732 30.3444C40.2979 32.1156 40.8943 34.1707 40.8926 36.2687L41.0391 59.2943C33.9188 50.1042 21.0049 47.7817 11.1289 53.9153L18.8919 32.9485ZM39.286 81.1533C36.2601 87.3336 29.9791 91.2517 23.0977 91.251V91.2501C13.1401 91.247 5.07049 83.1722 5.07355 73.2146C5.07402 71.7093 5.26304 70.2099 5.63613 68.7516L6.91269 65.3037C11.2894 56.364 22.0845 52.6651 31.0241 57.0418C39.9638 61.4186 43.6628 72.2138 39.286 81.1533ZM62.2636 59.6377H45.7436L45.7201 56.1113H62.2871L62.2636 59.6377ZM62.3177 51.4094H45.6911L45.6129 38.9495H62.395L62.3177 51.4094ZM76.096 16.7404C78.8744 16.7252 81.3915 18.3753 82.4856 20.9291C77.9215 19.7195 73.0563 20.5863 69.1909 23.2977C69.4292 19.6551 72.4652 16.7404 76.096 16.7404ZM67.1147 36.2518C67.1147 30.1003 72.1707 25.0957 78.3854 25.0957C80.387 25.0938 82.353 25.6265 84.0798 26.6388C84.1948 26.7244 84.3172 26.7994 84.4458 26.8629C86.6404 28.2645 88.2802 30.3843 89.0854 32.8608C89.0948 32.8907 89.1049 32.9196 89.1155 32.9483L96.8785 53.9151C87.0037 47.782 74.0911 50.1028 66.9702 59.291L67.1147 36.2518ZM89.3727 90.6872C87.9144 91.0603 86.415 91.2494 84.9097 91.2498L84.9101 91.2503C74.9556 91.2533 66.8834 83.1859 66.8804 73.2313C66.8773 63.2767 74.9448 55.2046 84.8993 55.2015C91.7841 55.1994 98.0686 59.1196 101.095 65.3035L102.371 68.7514C104.839 78.3982 99.0198 88.2192 89.3727 90.6872Z" fill="#1A407D"/>
<path d="M23.0974 57.1221C14.2036 57.1221 6.99353 64.3319 6.99353 73.226C6.99353 82.1198 14.2036 89.3299 23.0974 89.3299C31.9915 89.3299 39.2014 82.1198 39.2014 73.226C39.1917 64.3361 31.9875 57.1319 23.0974 57.1221ZM23.0974 84.6282C16.8002 84.6282 11.6954 79.5234 11.6954 73.2262C11.6954 66.929 16.8002 61.8242 23.0974 61.8242C29.3947 61.8242 34.4995 66.929 34.4995 73.2262C34.4927 79.5204 29.3918 84.6212 23.0974 84.6282Z" fill="#1A407D"/>
<path d="M84.6238 57.1221C75.7297 57.1221 68.5199 64.3319 68.5199 73.226C68.5199 82.1198 75.7297 89.3299 84.6238 89.3299C93.5176 89.3299 100.728 82.1198 100.728 73.226C100.718 64.3361 93.5136 57.1319 84.6238 57.1221ZM84.6238 84.6282C78.3266 84.6282 73.2218 79.5234 73.2218 73.2262C73.2218 66.929 78.3266 61.8242 84.6238 61.8242C90.921 61.8242 96.0258 66.929 96.0258 73.2262C96.019 79.5204 90.918 84.6214 84.6238 84.6282Z" fill="#1A407D"/>
</g>
<defs>
<clipPath id="clip0">
<rect width="107.273" height="107.273" fill="white" transform="translate(0.363647 0.363647)"/>
</clipPath>
</defs>
</svg>
