<svg width="101" height="101" viewBox="0 0 101 101" fill="none" xmlns="http://www.w3.org/2000/svg">
<path d="M100.75 33.371C100.75 29.3069 97.4431 26 93.379 26C91.4111 26 89.5586 26.767 88.1676 28.1596L83.3511 32.9761L78 38.3273V22.62C83.5039 21.827 87.75 17.0934 87.75 11.375C87.75 5.1025 82.6475 0 76.375 0H11.375C5.1025 0 0 5.1025 0 11.375V92.625C0 93.522 0.728 94.25 1.625 94.25H9.75V99.125C9.75 100.022 10.478 100.75 11.375 100.75H76.375C77.272 100.75 78 100.022 78 99.125V59.1728L93.7739 43.3989L95.4427 41.73C94.601 45.9225 92.5486 49.777 89.4579 52.8694L81.7277 60.5995L84.0255 62.8973L91.7556 55.1671C96.3674 50.5554 98.9463 44.4649 99.0974 37.9665C100.149 36.6632 100.75 35.0707 100.75 33.371ZM90.4654 30.4574C91.2438 29.679 92.2789 29.25 93.379 29.25C95.6507 29.25 97.5 31.0992 97.5 33.371C97.5 34.4711 97.071 35.5063 96.2926 36.2846L92.625 39.9523L86.7978 34.125L90.4654 30.4574ZM84.5 36.4227L86.2647 38.1875L65.8125 58.6397L64.0478 56.875L84.5 36.4227ZM45.8526 79.3049L49.1953 72.618L54.132 77.5548L47.4451 80.8974L45.8526 79.3049ZM51.0478 69.875L61.75 59.1728L67.5772 65L56.875 75.7022L51.0478 69.875ZM76.375 3.25C80.8551 3.25 84.5 6.89488 84.5 11.375C84.5 15.8551 80.8551 19.5 76.375 19.5H19.3213C21.4338 17.433 22.75 14.5568 22.75 11.375C22.75 8.19325 21.4338 5.317 19.3213 3.25H76.375ZM13 19.3359V14.625C13 13.7296 13.7296 13 14.625 13H19.3359C18.6875 16.1785 16.1785 18.6875 13 19.3359ZM3.25 91V11.375C3.25 6.89488 6.89488 3.25 11.375 3.25C15.2978 3.25 18.5802 6.04663 19.3359 9.75H14.625C11.9373 9.75 9.75 11.9373 9.75 14.625V91H3.25ZM74.75 97.5H13V22.75H74.75V41.5773L67.5772 48.75H19.5V52H64.3272L61.0772 55.25H19.5V58.5H57.8272L47.6011 68.7261C47.4744 68.8529 47.3915 69.004 47.3151 69.1567L47.2973 69.147L42.4223 78.897C42.1103 79.5226 42.2321 80.2783 42.7278 80.7723L43.2023 81.25L39.4761 84.9761L41.7739 87.2739L45.5 83.5478L45.9761 84.0239C46.2881 84.3359 46.7041 84.5 47.125 84.5C47.3704 84.5 47.6206 84.4431 47.8514 84.3294L57.6014 79.4544L57.5916 79.4365C57.7444 79.3601 57.8955 79.2773 58.0223 79.1505L71.0223 66.1505L74.75 62.4228V97.5ZM69.875 62.7022L68.1103 60.9375L88.5625 40.4852L90.3272 42.25L69.875 62.7022Z" fill="#1A407D"/>
<path d="M19.5 29.25H68.25V32.5H19.5V29.25Z" fill="#1A407D"/>
<path d="M19.5 35.75H68.25V39H19.5V35.75Z" fill="#1A407D"/>
<path d="M19.5 42.25H68.25V45.5H19.5V42.25Z" fill="#1A407D"/>
<path d="M19.5 81.25H37.375V84.5H19.5V81.25Z" fill="#1A407D"/>
<path d="M19.5 87.75H68.25V91H19.5V87.75Z" fill="#1A407D"/>
</svg>
