<svg width="89" height="89" viewBox="0 0 89 89" fill="none" xmlns="http://www.w3.org/2000/svg">
<g clip-path="url(#clip0)">
<path d="M88.4419 7.03761C88.2509 3.53479 85.4651 0.749315 81.9623 0.55814C74.8943 0.172 61.0635 0.547634 47.8383 7.3881C41.0964 10.8754 33.9661 16.7879 28.2757 23.6096C28.2056 23.6936 28.1374 23.7782 28.0679 23.8624L15.1541 24.86C13.0284 25.0243 11.1351 26.1384 9.95942 27.9165L1.14916 41.2423C0.257525 42.5909 0.115779 44.2786 0.769737 45.7568C1.42387 47.2352 2.76795 48.2655 4.36539 48.513L15.2453 50.1981C15.2069 50.4096 15.1683 50.6209 15.133 50.8324C14.7708 52.9991 15.4887 55.2267 17.0536 56.7914L32.2084 71.9465C33.5059 73.2439 35.259 73.9592 37.0553 73.9592C37.4253 73.9592 37.7973 73.9287 38.1676 73.8668C38.3791 73.8315 38.5904 73.793 38.8019 73.7545L40.487 84.6347C40.7345 86.2321 41.7648 87.5764 43.2429 88.2303C43.8579 88.5024 44.5088 88.6368 45.1567 88.6368C46.0666 88.6366 46.9701 88.3717 47.7576 87.8511L61.0833 79.0406C62.8616 77.8648 63.9756 75.9715 64.1396 73.846L65.1371 60.9324C65.2213 60.8628 65.3061 60.7946 65.3901 60.7245C72.212 55.0342 78.1247 47.9038 81.6118 41.1617C88.4526 27.936 88.8275 14.1051 88.4419 7.03761ZM58.2338 74.7304L45.4869 83.1581L43.8445 72.5548C49.2318 70.9708 54.5612 68.4338 59.6383 65.0352L58.9885 73.4478C58.948 73.9726 58.6728 74.4402 58.2338 74.7304ZM35.862 68.293L20.7069 53.1379C20.3203 52.7511 20.1415 52.2077 20.2292 51.6843C20.6797 48.9901 21.3798 46.4254 22.2465 44.0094L44.9857 66.7486C42.084 67.788 39.4848 68.408 37.3156 68.7707C36.7913 68.8579 36.2486 68.6796 35.862 68.293ZM15.5521 30.0116L23.9645 29.3617C20.5657 34.4389 18.0287 39.7682 16.4447 45.1556L5.84157 43.5134L14.2695 30.7663C14.5599 30.3271 15.0275 30.052 15.5521 30.0116ZM62.0809 56.7565C57.9072 60.2378 53.8559 62.7558 50.1216 64.5778L24.4212 38.8774C26.808 34.0026 29.7209 29.9433 32.2434 26.9193C37.5093 20.6062 44.0587 15.1602 50.2124 11.9773C62.3501 5.69904 75.1384 5.36095 81.681 5.71712C82.547 5.76431 83.2358 6.45306 83.2829 7.3192C83.6396 13.8619 83.3008 26.65 77.0225 38.7879C73.8399 44.9413 68.3938 51.4905 62.0809 56.7565Z" fill="#1A407D"/>
<path d="M60.7684 41.1427C64.0755 41.1423 67.3841 39.8833 69.9019 37.3655C72.3417 34.9259 73.6851 31.6821 73.6851 28.232C73.6851 24.7819 72.3415 21.5381 69.9019 19.0984C64.8655 14.0619 56.6708 14.0623 51.6348 19.0984C49.195 21.5381 47.8514 24.7819 47.8514 28.232C47.8514 31.6821 49.1952 34.9259 51.6348 37.3655C54.1532 39.8839 57.46 41.143 60.7684 41.1427ZM55.288 22.7518C56.7988 21.2408 58.7834 20.4854 60.768 20.4854C62.7528 20.4854 64.7374 21.2408 66.2482 22.7518C67.712 24.2156 68.518 26.1618 68.518 28.2318C68.518 30.3018 67.712 32.2482 66.2482 33.712C63.2266 36.7338 58.3096 36.7336 55.2878 33.712C53.824 32.2482 53.0178 30.302 53.0178 28.232C53.0178 26.1619 53.8242 24.2156 55.288 22.7518Z" fill="#1A407D"/>
<path d="M2.99889 73.1249C3.66008 73.1249 4.32128 72.8728 4.82556 72.3681L13.2602 63.9335C14.2691 62.9246 14.2691 61.2889 13.2602 60.28C12.2514 59.2711 10.6156 59.2711 9.60667 60.28L1.17222 68.7146C0.163296 69.7235 0.163296 71.3592 1.17222 72.3681C1.67651 72.8726 2.3377 73.1249 2.99889 73.1249Z" fill="#1A407D"/>
<path d="M20.9901 68.0099C19.9814 67.001 18.3455 67.001 17.3366 68.0099L1.12046 84.2263C0.111539 85.2352 0.111539 86.8708 1.12046 87.8798C1.62492 88.3842 2.28594 88.6364 2.94713 88.6364C3.60833 88.6364 4.26952 88.3842 4.77381 87.8796L20.99 71.6634C21.9991 70.6545 21.9991 69.0189 20.9901 68.0099Z" fill="#1A407D"/>
<path d="M25.0664 75.7397L16.6318 84.1744C15.6229 85.1833 15.6229 86.8189 16.6318 87.8279C17.1363 88.3323 17.7975 88.5847 18.4585 88.5847C19.1195 88.5847 19.7809 88.3325 20.2852 87.8279L28.7198 79.3932C29.7287 78.3843 29.7287 76.7486 28.7198 75.7397C27.711 74.7308 26.0752 74.7308 25.0664 75.7397Z" fill="#1A407D"/>
</g>
<defs>
<clipPath id="clip0">
<rect width="88.1818" height="88.1818" fill="white" transform="translate(0.363647 0.454529)"/>
</clipPath>
</defs>
</svg>
