<svg width="63" height="63" viewBox="0 0 63 63" fill="none" xmlns="http://www.w3.org/2000/svg">
<path d="M49.4376 16.8748H13.5627C13.0526 16.8748 12.6392 17.2882 12.6392 17.7983C12.6392 18.3085 13.0526 18.7219 13.5627 18.7219H49.4376C49.9477 18.7219 50.3611 18.3085 50.3611 17.7983C50.3611 17.2882 49.9477 16.8748 49.4376 16.8748Z" fill="white"/>
<path d="M49.4376 26.9312H13.5627C13.0526 26.9312 12.6392 27.3446 12.6392 27.8547C12.6392 28.3648 13.0526 28.7783 13.5627 28.7783H49.4376C49.9477 28.7783 50.3611 28.3649 50.3611 27.8547C50.3611 27.3446 49.9477 26.9312 49.4376 26.9312Z" fill="white"/>
<path d="M37.6764 33.4575H25.3242C24.8141 33.4575 24.4006 33.871 24.4006 34.3811C24.4006 34.8911 24.8141 35.3047 25.3242 35.3047H37.6764C38.1866 35.3047 38.6 34.8913 38.6 34.3811C38.6 33.871 38.1866 33.4575 37.6764 33.4575Z" fill="white"/>
<path d="M49.4375 21.8823H22.678C22.1678 21.8823 21.7544 22.2958 21.7544 22.8059C21.7544 23.3159 22.1678 23.7295 22.678 23.7295H49.4375C49.9476 23.7295 50.3611 23.3161 50.3611 22.8059C50.3611 22.2958 49.9476 21.8823 49.4375 21.8823Z" fill="white"/>
<path d="M18.381 21.8823H13.5628C13.0526 21.8823 12.6392 22.2958 12.6392 22.8059C12.6392 23.3161 13.0526 23.7295 13.5628 23.7295H18.381C18.8912 23.7295 19.3046 23.3161 19.3046 22.8059C19.3046 22.2959 18.8912 21.8823 18.381 21.8823Z" fill="white"/>
<path d="M58.2317 15.3138C58.0169 15.1027 57.7325 14.9866 57.4292 14.9866C57.4289 14.9866 57.4288 14.9866 57.4286 14.9866C55.5567 14.9866 54.0246 13.5233 53.9403 11.6547C53.9126 11.0471 53.4133 10.5713 52.8036 10.5713H9.97592C9.3661 10.5713 8.86665 11.0472 8.83909 11.6553C8.75874 13.4409 7.29707 14.9027 5.51141 14.983C4.90356 15.0103 4.42749 15.5098 4.42749 16.1198V39.9935C4.42749 40.6036 4.90356 41.1029 5.51141 41.1302C7.29707 41.2107 8.75874 42.6724 8.83909 44.4585C8.86677 45.0661 9.36622 45.5419 9.97592 45.5419H37.2403C37.7504 45.5419 38.1639 45.1285 38.1639 44.6184C38.1639 44.1083 37.7504 43.6948 37.2403 43.6948H10.6111C10.2293 41.4702 8.49911 39.74 6.27455 39.3581V16.7549C8.49911 16.3731 10.2293 14.6425 10.6111 12.4183H52.1688C52.5663 14.7132 54.4138 16.4846 56.7247 16.7877V32.4724C56.7247 32.9824 57.1382 33.396 57.6483 33.396C58.1585 33.396 58.5719 32.9826 58.5719 32.4724V16.125C58.5719 15.8175 58.4511 15.5293 58.2317 15.3138Z" fill="white"/>
<path d="M60.4363 5.96094H2.56368C1.15012 5.96094 0 7.11106 0 8.52462V47.5883C0 49.002 1.15012 50.152 2.56368 50.152H41.3294L39.9569 53.028C39.7806 53.3972 39.8235 53.8302 40.0686 54.1578C40.3138 54.4855 40.7173 54.6483 41.121 54.5836L43.6762 54.1729L45.1015 56.5124C45.3013 56.8407 45.6564 57.0388 46.038 57.0388C46.0566 57.0388 46.0753 57.0383 46.094 57.0373C46.4966 57.0169 46.8545 56.7782 47.0284 56.4142L49.5048 51.225L51.981 56.4138C52.1545 56.7778 52.5125 57.0168 52.9152 57.0374C52.934 57.0384 52.953 57.0389 52.9717 57.0389C53.3532 57.0389 53.7084 56.8408 53.9082 56.5127L55.3334 54.1732L57.8886 54.584C58.2936 54.6487 58.6963 54.4855 58.9413 54.1577C59.1864 53.8299 59.229 53.397 59.0527 53.0283L57.6802 50.1524H60.4363C61.8499 50.1524 63 49.0024 63 47.5887V8.52462C63 7.11106 61.8499 5.96094 60.4363 5.96094ZM45.9581 54.3682L44.9914 52.7815C44.7585 52.3993 44.3227 52.1983 43.8805 52.2693L42.2398 52.5331L43.9681 48.9116C44.6493 49.6066 45.6198 49.9822 46.6271 49.8873C46.9715 49.8543 47.3168 49.9471 47.599 50.1476C47.692 50.2138 47.7886 50.2725 47.8864 50.3278L45.9581 54.3682ZM49.7251 48.8916C49.7223 48.892 49.7194 48.8922 49.7165 48.8927C49.5765 48.9134 49.4341 48.9134 49.2941 48.8929C49.2905 48.8924 49.2869 48.892 49.2835 48.8915C49.0665 48.8579 48.8556 48.7748 48.6689 48.6421C48.1102 48.2449 47.4432 48.0337 46.7627 48.0337C46.6596 48.0337 46.5563 48.0387 46.4529 48.0484C45.8415 48.1061 45.2606 47.7703 45.0054 47.2126C44.8921 46.9651 44.7475 46.736 44.5796 46.5264C44.5723 46.516 44.5641 46.5061 44.5564 46.496C44.547 46.4847 44.5383 46.473 44.5289 46.4618C44.5182 46.4493 44.507 46.4373 44.4956 46.4254C44.1902 46.074 43.8128 45.787 43.383 45.5904C42.8252 45.3352 42.4894 44.7534 42.5473 44.1427C42.6216 43.357 42.4108 42.57 41.9536 41.9268C41.5981 41.4269 41.5981 40.7551 41.9534 40.2552C42.4108 39.612 42.6216 38.825 42.5473 38.0393C42.4894 37.4286 42.8254 36.8468 43.383 36.5916C44.1007 36.2632 44.6768 35.6871 45.0053 34.9694C45.2606 34.4116 45.8436 34.0757 46.4529 34.1336C47.2395 34.2078 48.0258 33.997 48.669 33.5398C49.169 33.1844 49.8408 33.1844 50.3406 33.5398C50.9839 33.997 51.7703 34.2073 52.5566 34.1336C53.1678 34.0755 53.7492 34.4117 54.0044 34.9694C54.3328 35.6871 54.9089 36.2632 55.6265 36.5915C56.1843 36.8468 56.5202 37.4286 56.4624 38.0391C56.3881 38.825 56.5989 39.612 57.0561 40.2551C57.4116 40.755 57.4116 41.4267 57.0561 41.9267C56.5989 42.57 56.3881 43.357 56.4624 44.1426C56.5202 44.7533 56.1843 45.3351 55.6264 45.5904C55.1976 45.7867 54.8211 46.0729 54.516 46.4232C54.5035 46.4362 54.4912 46.4494 54.4796 46.463C54.4716 46.4726 54.4641 46.4826 54.4561 46.4923C54.4469 46.5041 54.4375 46.5157 54.4289 46.5279C54.2616 46.7371 54.1174 46.9657 54.0044 47.2126C53.7491 47.7703 53.1673 48.1063 52.5566 48.0484C51.7716 47.9744 50.9841 48.1848 50.3406 48.6421C50.1535 48.775 49.9424 48.8582 49.7251 48.8916ZM55.1291 52.2691C54.6867 52.1984 54.2511 52.3993 54.0182 52.7816L53.0515 54.3683L51.1233 50.3278C51.2211 50.2725 51.3176 50.2138 51.4107 50.1476C51.693 49.947 52.0385 49.854 52.3825 49.8872C53.3903 49.9822 54.3605 49.6066 55.0417 48.9116L56.7699 52.5329L55.1291 52.2691ZM61.1529 47.5884C61.1529 47.9835 60.8315 48.3051 60.4363 48.3051H56.7987L56.3225 47.3071C56.3465 47.2945 56.3704 47.2812 56.3952 47.2699C57.667 46.6877 58.433 45.361 58.3012 43.9686C58.2686 43.6241 58.361 43.279 58.5616 42.9968C59.372 41.8568 59.372 40.3249 58.5615 39.1848C58.361 38.9028 58.2686 38.5578 58.3012 38.2131C58.433 36.8207 57.667 35.494 56.3951 34.9119C56.0805 34.7678 55.8278 34.5152 55.6838 34.2006C55.1017 32.9286 53.7744 32.1629 52.3824 32.2946C52.0376 32.3274 51.6927 32.2348 51.4107 32.0342C50.2707 31.2238 48.7386 31.2237 47.5987 32.0342C47.3166 32.2348 46.9707 32.3274 46.627 32.2944C45.2329 32.1633 43.9077 32.9286 43.3258 34.2004C43.1817 34.5152 42.9291 34.7677 42.6143 34.9118C41.3425 35.4939 40.5766 36.8205 40.7083 38.213C40.7409 38.5577 40.6485 38.9027 40.448 39.1848C39.6376 40.3249 39.6376 41.8568 40.448 42.9967C40.6485 43.2787 40.7409 43.6239 40.7083 43.9685C40.5766 45.361 41.3425 46.6877 42.6143 47.2697C42.6392 47.2811 42.6629 47.2943 42.6869 47.307L42.2107 48.3051H2.56368C2.16858 48.3051 1.84706 47.9837 1.84706 47.5884V8.52462C1.84706 8.12952 2.16845 7.80799 2.56368 7.80799H60.4363C60.8314 7.80799 61.1529 8.12952 61.1529 8.52462V47.5884Z" fill="white"/>
<path d="M49.4379 35.3528C46.2738 35.3528 43.6997 37.9269 43.6997 41.0908C43.6997 44.2549 46.2738 46.829 49.4379 46.829C52.6019 46.829 55.1759 44.2547 55.1759 41.0908C55.1759 37.9268 52.6019 35.3528 49.4379 35.3528ZM49.4379 44.9818C47.2923 44.9818 45.5468 43.2363 45.5468 41.0907C45.5468 38.9453 47.2923 37.1997 49.4379 37.1997C51.5833 37.1997 53.3289 38.9453 53.3289 41.0907C53.3289 43.2363 51.5833 44.9818 49.4379 44.9818Z" fill="white"/>
</svg>
