<svg width="64" height="64" viewBox="0 0 64 64" fill="none" xmlns="http://www.w3.org/2000/svg">
<path d="M32 0C14.3551 0 0 14.3551 0 32C0 49.6449 14.3551 64 32 64C49.6449 64 64 49.6449 64 32C64 14.3551 49.6449 0 32 0ZM32 60.25C16.4229 60.25 3.75 47.5771 3.75 32C3.75 16.4229 16.4229 3.75 32 3.75C47.5771 3.75 60.25 16.4229 60.25 32C60.25 47.5771 47.5771 60.25 32 60.25Z" fill="white"/>
<path d="M32 7.5C18.4906 7.5 7.5 18.4906 7.5 32C7.5 45.5094 18.4906 56.5 32 56.5C45.5094 56.5 56.5 45.5094 56.5 32C56.5 18.4906 45.5094 7.5 32 7.5ZM32 52.75C20.5584 52.75 11.25 43.4416 11.25 32C11.25 20.5584 20.5584 11.25 32 11.25C43.4416 11.25 52.75 20.5584 52.75 32C52.75 43.4416 43.4416 52.75 32 52.75Z" fill="white"/>
<path d="M45.346 21.3048L42.6945 18.6533L31.9994 29.3483L21.3486 18.6976L18.697 21.3492L29.3478 32L26.6961 34.6516L29.3478 37.3032L31.9994 34.6516L34.651 37.3032L37.3026 34.6516L34.651 32L45.346 21.3048Z" fill="white"/>
<path d="M30.125 15H33.875V18.75H30.125V15Z" fill="white"/>
<path d="M30.125 45.25H33.875V49H30.125V45.25Z" fill="white"/>
<path d="M15 30.125H18.75V33.875H15V30.125Z" fill="white"/>
<path d="M45.25 30.125H49V33.875H45.25V30.125Z" fill="white"/>
</svg>
