<svg width="59" height="59" viewBox="0 0 59 59" fill="none" xmlns="http://www.w3.org/2000/svg">
<path d="M48.5137 18.4375C48.5137 15.836 46.3299 13.5298 42.3644 11.9436C38.9004 10.558 34.3317 9.79492 29.5 9.79492C24.6683 9.79492 20.0996 10.558 16.6356 11.9436C12.6701 13.5298 10.4863 15.836 10.4863 18.4375C10.4863 20.6371 11.9939 22.5767 14.8076 24.0803V20.4541C14.8076 18.7481 15.815 17.198 17.374 16.5051C21.3593 14.7339 25.4391 13.8357 29.5 13.8357C33.5609 13.8357 37.6406 14.7339 41.6261 16.5052C43.185 17.1979 44.1924 18.7479 44.1924 20.4541V24.0803C47.0061 22.5767 48.5137 20.6371 48.5137 18.4375Z" fill="white" fill-opacity="0.8"/>
<path d="M40.1337 7.59821C38.6223 3.17816 34.4327 0 29.5006 0C24.5684 0 20.379 3.17816 18.8674 7.59821C22.0606 6.77739 25.7195 6.33789 29.5006 6.33789C33.2816 6.33789 36.9406 6.77739 40.1337 7.59821Z" fill="white" fill-opacity="0.8"/>
<path d="M28.3477 17.6309C28.3477 20.395 30.5963 22.6436 33.3604 22.6436H40.7354V20.4542C40.7354 20.1126 40.5342 19.8031 40.2221 19.6644C36.2834 17.9138 32.3139 17.1343 28.3477 17.322V17.6309Z" fill="white" fill-opacity="0.8"/>
<path d="M19.8779 22.6436C22.6084 22.6436 24.8344 20.4489 24.8881 17.731C22.8463 18.1184 20.808 18.7621 18.7779 19.6644C18.4658 19.8031 18.2646 20.1126 18.2646 20.4542V22.6436H19.8779Z" fill="white" fill-opacity="0.8"/>
<path d="M33.3604 26.1006C30.6127 26.1006 28.1675 24.7846 26.6191 22.7507C25.0707 24.7845 22.6256 26.1006 19.8779 26.1006H18.2646V26.792C18.2646 32.9971 23.2949 38.0274 29.5 38.0274C35.7051 38.0274 40.7354 32.9971 40.7354 26.792V26.1006H33.3604Z" fill="white" fill-opacity="0.8"/>
<path d="M24.8909 40.7429V42.6367H23.3125C24.6318 45.5664 26.7993 48.088 29.5002 49.8296C32.2012 48.088 34.3687 45.5664 35.688 42.6367H34.1096V40.7429C32.6592 41.2233 31.1097 41.4843 29.5002 41.4843C27.8908 41.4843 26.3413 41.2233 24.8909 40.7429Z" fill="white" fill-opacity="0.8"/>
<path d="M39.4272 42.6384L39.171 43.2787C37.6034 47.1978 34.7925 50.5717 31.2283 52.827V59H42.7517V53.2384C42.7517 52.2838 43.5256 51.5099 44.4802 51.5099C45.4348 51.5099 46.2087 52.2838 46.2087 53.2384V59H52.8923C53.656 59 54.2751 58.3808 54.2751 57.6172C54.2753 49.3879 47.6396 42.7096 39.4272 42.6384Z" fill="white" fill-opacity="0.8"/>
<path d="M19.8287 43.2787L19.5726 42.6384C11.3603 42.7096 4.72461 49.3879 4.72461 57.6172C4.72461 58.3808 5.34376 59 6.10742 59H12.791V53.2384C12.791 52.2838 13.5649 51.5099 14.5195 51.5099C15.4741 51.5099 16.248 52.2838 16.248 53.2384V59H27.7715V52.827C24.2073 50.5717 21.3964 47.1978 19.8287 43.2787Z" fill="white" fill-opacity="0.8"/>
</svg>
