<svg width="57" height="57" viewBox="0 0 57 57" fill="none" xmlns="http://www.w3.org/2000/svg">
<g clip-path="url(#clip0)">
<path d="M41.371 0C32.7529 0 25.7419 7.01098 25.7419 15.629C25.7419 24.2471 32.7529 31.2581 41.371 31.2581C49.989 31.2581 57 24.2471 57 15.629C57 7.01098 49.989 0 41.371 0ZM44.129 5.51613V7.35484H38.6129V5.51613H44.129ZM38.6129 9.19355H44.129V10.1129C44.129 11.6333 42.8914 12.871 41.371 12.871C39.8505 12.871 38.6129 11.6333 38.6129 10.1129V9.19355ZM41.371 14.7097C41.6852 14.7097 41.9932 14.6774 42.2903 14.6168V16.5484H40.4516V14.6168C40.7488 14.6774 41.0567 14.7097 41.371 14.7097ZM44.2036 18.3871C46.387 18.3871 48.2836 19.9408 48.711 22.0829L49.4427 25.7419H33.2992L34.031 22.0829C34.4583 19.9408 36.3549 18.3871 38.5384 18.3871H44.2036ZM34.5207 27.5806H48.2221C46.2012 28.7438 43.866 29.4194 41.3719 29.4194C38.8778 29.4194 36.5417 28.7438 34.5207 27.5806ZM51.2217 25.2612L50.5138 21.7216C49.9145 18.7238 47.2601 16.5484 44.2036 16.5484H44.129V13.7903H44.1008C45.2266 12.9518 45.9678 11.6217 45.9678 10.1129V5.51613H47.8065V3.67742H34.9355V5.51613H36.7742V10.1129C36.7742 11.6217 37.5153 12.9518 38.6412 13.7903H38.6129V16.5484H38.5384C35.4818 16.5484 32.8274 18.7238 32.2282 21.7216L31.5202 25.2612C29.0867 22.7733 27.5807 19.3756 27.5807 15.629C27.5807 8.02505 33.767 1.83871 41.371 1.83871C48.975 1.83871 55.1613 8.02505 55.1613 15.629C55.1613 19.3756 53.6552 22.7733 51.2217 25.2612Z" fill="white"/>
<path d="M15.629 25.7419C7.01098 25.7419 0 32.7529 0 41.371C0 49.989 7.01098 57 15.629 57C24.2471 57 31.2581 49.989 31.2581 41.371C31.2581 32.7529 24.2471 25.7419 15.629 25.7419ZM15.629 38.6129C14.1086 38.6129 12.871 37.3753 12.871 35.8548V34.0161C12.871 32.4957 14.1086 31.2581 15.629 31.2581C17.1495 31.2581 18.3871 32.4957 18.3871 34.0161V35.8548C18.3871 37.3753 17.1495 38.6129 15.629 38.6129ZM15.629 40.4516C15.9433 40.4516 16.2512 40.4193 16.5484 40.3587V42.2903H14.7097V40.3587C15.0069 40.4193 15.3148 40.4516 15.629 40.4516ZM18.4616 44.129C20.6451 44.129 22.5417 45.6827 22.9691 47.8249L23.7008 51.4839H7.55729L8.28901 47.8249C8.71636 45.6827 10.613 44.129 12.7965 44.129H18.4616ZM8.77876 53.3226H22.4802C20.4592 54.4857 18.124 55.1613 15.6299 55.1613C13.1358 55.1613 10.7997 54.4857 8.77876 53.3226ZM25.4798 51.0031L24.7719 47.4635C24.1726 44.4657 21.5182 42.2903 18.4616 42.2903H18.3871V39.5323H18.3588C19.4847 38.6937 20.2258 37.3636 20.2258 35.8548V34.0161C20.2258 31.4816 18.1635 29.4194 15.629 29.4194C13.0945 29.4194 11.0323 31.4816 11.0323 34.0161V35.8548C11.0323 37.3636 11.7734 38.6937 12.8993 39.5323H12.871V42.2903H12.7965C9.73987 42.2903 7.0855 44.4657 6.48621 47.4635L5.77829 51.0031C3.34478 48.5153 1.83871 45.1175 1.83871 41.371C1.83871 33.767 8.02505 27.5807 15.629 27.5807C23.233 27.5807 29.4194 33.767 29.4194 41.371C29.4194 45.1175 27.9133 48.5153 25.4798 51.0031Z" fill="white"/>
<path d="M48.7258 33.0967H45.0484C44.5411 33.0967 44.129 33.5074 44.129 34.016V35.8547C44.129 38.5832 42.1377 40.8551 39.5323 41.2946V39.5322C39.5323 39.1609 39.3078 38.8242 38.9648 38.6828C38.6201 38.5383 38.2259 38.6191 37.9629 38.8822L33.3661 43.4789C33.0065 43.8385 33.0065 44.4194 33.3661 44.7789L37.9629 49.3757C38.1384 49.5512 38.3741 49.6451 38.6129 49.6451C38.7314 49.6451 38.8508 49.6231 38.9648 49.575C39.3078 49.4336 39.5323 49.097 39.5323 48.7257V46.8493C45.1862 46.3806 49.6452 41.6281 49.6452 35.8547V34.016C49.6452 33.5074 49.2331 33.0967 48.7258 33.0967ZM47.8065 35.8547C47.8065 40.9242 43.6824 45.0483 38.6129 45.0483C38.1056 45.0483 37.6935 45.459 37.6935 45.9676V46.5063L35.3162 44.1289L37.6935 41.7515V42.2902C37.6935 42.7988 38.1056 43.2096 38.6129 43.2096C42.6683 43.2096 45.9677 39.9101 45.9677 35.8547V34.9354H47.8065V35.8547Z" fill="white"/>
<path d="M8.27434 23.9032H11.9518C12.459 23.9032 12.8711 23.4925 12.8711 22.9839V21.1452C12.8711 18.4167 14.8624 16.1448 17.4679 15.7053V17.4677C17.4679 17.839 17.6923 18.1757 18.0353 18.3171C18.3783 18.4607 18.7733 18.3808 19.0373 18.1178L23.634 13.521C23.9936 13.1614 23.9936 12.5805 23.634 12.221L19.0373 7.62418C18.7733 7.36022 18.3783 7.28032 18.0353 7.42487C17.6923 7.56627 17.4679 7.90295 17.4679 8.27419V10.1506C11.8139 10.6193 7.35498 15.3718 7.35498 21.1452V22.9839C7.35498 23.4925 7.76707 23.9032 8.27434 23.9032ZM9.19369 21.1452C9.19369 16.0757 13.3178 11.9516 18.3872 11.9516C18.8945 11.9516 19.3066 11.5409 19.3066 11.0323V10.4936L21.684 12.871L19.3066 15.2484V14.7097C19.3066 14.2011 18.8945 13.7903 18.3872 13.7903C14.3318 13.7903 11.0324 17.0898 11.0324 21.1452V22.0645H9.19369V21.1452Z" fill="white"/>
</g>
<defs>
<clipPath id="clip0">
<rect width="57" height="57" fill="white"/>
</clipPath>
</defs>
</svg>
